<?xml version="1.0" encoding="UTF-8"?>
<svg data-bbox="33.155 35.068 133.69 129.862" viewBox="0 0 200 200" height="200" width="200" xmlns="http://www.w3.org/2000/svg" data-type="color">
    <g>
        <path d="M166.114 84.3l-18.761-14.246a1.832 1.832 0 0 0 .039-.193V39.745h1.852a1.853 1.853 0 1 0 0-3.7h-22.228a1.853 1.853 0 0 0 0 3.7h1.853v16.271l-27.087-20.571a1.856 1.856 0 0 0-2.229-.011L33.9 84.291a1.852 1.852 0 0 0 1.108 3.337h7.572v73.6h-5.557a1.852 1.852 0 1 0 0 3.7h125.958a1.852 1.852 0 1 0 0-3.7h-5.557v-73.6h7.569a1.852 1.852 0 0 0 1.121-3.326zm-33.541-44.555h11.114V67.27l-11.114-8.441zm21.147 121.483H46.284v-73.6H153.72zM40.6 83.924l60.048-44.688 58.842 44.688zm67.621 57.842h29.637a1.853 1.853 0 0 0 0-3.7h-1.172v-36.831a1.851 1.851 0 0 0-1.853-1.852h-23.587a1.851 1.851 0 0 0-1.852 1.852v36.826h-1.172a1.853 1.853 0 1 0 0 3.7zm24.76-38.679v9.548H113.1v-9.548zM113.1 116.34h19.884v21.721H113.1zm-50.955 25.426h29.637a1.853 1.853 0 1 0 0-3.7H90.61v-36.831a1.851 1.851 0 0 0-1.852-1.852H65.169a1.851 1.851 0 0 0-1.852 1.852v36.826h-1.172a1.853 1.853 0 0 0 0 3.7zm24.76-38.679v9.548H67.022v-9.548zM67.022 116.34h19.883v21.721H67.022zm24.189-51.585A8.79 8.79 0 1 0 100 55.963a8.8 8.8 0 0 0-8.789 8.792zm13.874 0A5.085 5.085 0 1 1 100 59.668a5.089 5.089 0 0 1 5.085 5.087z" fill="#fd5521" data-color="1"/>
    </g>
</svg>
