<?xml version="1.0" encoding="UTF-8"?>
<svg data-bbox="30.968 30.431 138.168 139.139" viewBox="0 0 200 200" height="200" width="200" xmlns="http://www.w3.org/2000/svg" data-type="color">
    <g>
        <path d="M122.684 155.939H116.8v-5.889h5.888zm11.777-5.889h-5.888v5.889h5.888zm-11.777-11.776H116.8v5.888h5.888zm11.777 0h-5.888v5.888h5.888zM122.684 126.5H116.8v5.888h5.888zm11.777 0h-5.888v5.888h5.888zm-11.777-11.78H116.8v5.889h5.888zm11.777 0h-5.888v5.889h5.888zm-11.777-11.776H116.8v5.888h5.888zm11.777 0h-5.888v5.888h5.888zm-11.777-11.777H116.8v5.888h5.888zm11.777 0h-5.888v5.888h5.888zM122.684 79.39H116.8v5.888h5.888zm11.777 0h-5.888v5.888h5.888zm-11.777-11.777H116.8V73.5h5.888zm11.777 0h-5.888V73.5h5.888zm-11.777-11.777H116.8v5.889h5.888zm11.777 0h-5.888v5.889h5.888zm-23.553 0h-5.889v5.889h5.889zm11.776-11.777H116.8v5.889h5.888zm11.777 0h-5.888v5.889h5.888zm11.777 105.991h-5.888v5.889h5.888zm0-11.776h-5.888v5.888h5.888zm0-11.777h-5.888v5.888h5.888zm0-11.777h-5.888v5.889h5.888zm0-11.776h-5.888v5.888h5.888zm0-11.777h-5.888v5.888h5.888zm0-11.777h-5.888v5.888h5.888zm0-11.777h-5.888V73.5h5.888zm0-11.777h-5.888v5.889h5.888zm0-11.777h-5.888v5.889h5.888zm-35.33 0h-5.889v5.889h5.889zM93.243 61.725h5.888v-5.889h-5.888zm0-11.777h5.888v-5.889h-5.888zm75.893 117.769a1.851 1.851 0 0 1-1.852 1.852H32.716a1.853 1.853 0 0 1 0-3.7h10.071V72.41h-1.659a1.852 1.852 0 0 1 0-3.7h41.14V34.136h-2.8a1.853 1.853 0 1 1 0-3.705h80.082a1.853 1.853 0 1 1 0 3.705h-2.34v131.728h10.072a1.852 1.852 0 0 1 1.854 1.853zM85.973 68.706h24.934a1.852 1.852 0 1 1 0 3.7h-1.091v93.454h43.691V34.136H85.973zm20.138 97.158V72.41h-59.62v93.454zM95.94 82.69a1.851 1.851 0 0 0-1.852 1.853v70.2a1.852 1.852 0 1 0 3.7 0v-70.2a1.851 1.851 0 0 0-1.848-1.853zm-13.093 0A1.851 1.851 0 0 0 81 84.543v70.2a1.852 1.852 0 1 0 3.7 0v-70.2a1.851 1.851 0 0 0-1.853-1.853zm-13.093 0a1.851 1.851 0 0 0-1.854 1.853v70.2a1.852 1.852 0 1 0 3.7 0v-70.2a1.851 1.851 0 0 0-1.846-1.853zm-13.091 0a1.851 1.851 0 0 0-1.852 1.853v70.2a1.852 1.852 0 1 0 3.7 0v-70.2a1.851 1.851 0 0 0-1.848-1.853z" fill="#fd5521" data-color="1"/>
    </g>
</svg>
